<svg width="58" height="58" viewBox="0 0 58 58" fill="none" xmlns="http://www.w3.org/2000/svg">
<path d="M51.0769 56.3569L1.15993 6.4399C-2.35907 2.9199 2.91996 -2.36011 6.43996 1.16089L56.357 51.0779C59.877 54.5959 54.5979 59.8769 51.0769 56.3569Z" fill="#FBAF35"/>
<path d="M38.264 10.796C38.264 16.9559 35.8169 22.8635 31.4612 27.2193C27.1055 31.575 21.1979 34.022 15.0379 34.022C10.0599 34.022 10.0599 26.555 15.0379 26.555C19.2175 26.555 23.2259 24.8947 26.1813 21.9393C29.1366 18.9839 30.797 14.9755 30.797 10.796C30.797 5.81898 38.264 5.81898 38.264 10.796Z" fill="#00B7BD"/>
<path d="M31.973 26.6959C30.243 28.5378 28.2254 30.0866 25.999 31.2819L20.356 25.6389C22.7802 24.7678 24.9545 23.3165 26.689 21.4119L31.973 26.6959Z" fill="white"/>
</svg>
